<svg xmlns="http://www.w3.org/2000/svg" width="1024" height="1024" viewBox="0 0 1024 1024" version="1.1"><path d="M 416.286 246.443 C 406.293 249.584, 399.640 255.323, 395.355 264.500 C 393.100 269.328, 393.019 270.381, 393.010 295.085 L 393 320.670 489.750 321.334 C 542.962 321.700, 623.288 321.999, 668.250 321.999 L 750 322 750 438.500 L 750 555 754.599 555 C 757.128 555, 760.740 554.268, 762.625 553.374 C 767.565 551.029, 773.569 543.769, 774.883 538.549 C 775.677 535.395, 776 496.023, 776 402.235 C 776 254.964, 776.504 265.262, 768.872 256.592 C 766.432 253.820, 762.314 250.803, 758.219 248.787 L 751.543 245.500 586.021 245.309 C 451.020 245.154, 419.723 245.363, 416.286 246.443 M 428.241 272.995 C 415.371 280.841, 420.944 299.984, 436.102 299.996 C 441.666 300.001, 446.465 297.065, 449.148 292.016 C 455.906 279.299, 440.656 265.425, 428.241 272.995 M 478.966 271.820 C 473.055 274.440, 469.998 279.097, 470.007 285.473 C 470.018 294.426, 475.675 299.982, 484.789 299.993 C 489.545 299.999, 490.492 299.613, 494.193 296.161 C 497.858 292.742, 498.353 291.730, 498.710 286.911 C 499.181 280.559, 496.998 276.189, 491.759 272.995 C 488.541 271.032, 482.082 270.439, 478.966 271.820 M 273.748 327.486 C 267.166 329.297, 259.518 334.441, 255.411 339.820 C 248.592 348.750, 248.935 340.704, 249.232 485.069 L 249.500 615.500 251.811 621.221 C 254.739 628.470, 261.368 635.345, 268.780 638.819 L 274.500 641.500 311.663 641.500 L 348.827 641.500 353.069 638.500 C 359.818 633.728, 361.147 631.352, 360.344 625.496 C 359.863 621.981, 358.847 619.693, 356.907 617.753 L 354.154 615 317.150 615 L 280.145 615 278.073 612.365 C 276.006 609.738, 276 609.423, 276 506.365 L 276 403 425.500 403 L 575 403 575 435 L 575 467 588.530 467 L 602.060 467 601.780 406.750 C 601.503 347.156, 601.476 346.456, 599.338 342.500 C 594.622 333.777, 586.593 328.800, 574.392 327.036 C 570.048 326.408, 514.077 326.065, 423 326.109 C 307.277 326.165, 277.554 326.439, 273.748 327.486 M 285.467 353.998 C 277.967 357.711, 275.246 366.352, 279.193 373.926 C 283.080 381.383, 291.418 384.048, 298.980 380.248 C 309.638 374.894, 309.642 359.909, 298.987 354.275 C 293.700 351.479, 290.681 351.417, 285.467 353.998 M 336.500 352.733 C 333.279 353.539, 329.086 356.933, 327.485 360.029 C 326.668 361.609, 326 365.139, 326 367.874 C 326 382.315, 345.385 387.258, 353.005 374.759 C 359.674 363.821, 349.017 349.599, 336.500 352.733 M 604.270 490.428 C 602.493 491.231, 600.132 493.375, 599.023 495.193 C 597.128 498.302, 597.007 500.189, 597.004 526.698 L 597 554.896 529.750 555.198 L 462.500 555.500 456 557.828 C 442.944 562.504, 433.285 571.063, 427.597 583 L 424.500 589.500 424.236 621 L 423.973 652.500 391.451 684.500 L 358.930 716.500 358.965 721.498 L 359 726.495 401.750 769.105 C 441.184 808.411, 444.869 811.814, 449.259 812.990 C 453.382 814.095, 454.612 814.038, 458.462 812.568 C 464.332 810.326, 468.692 805.273, 469.487 799.792 C 469.829 797.431, 469.972 783.932, 469.805 769.793 L 469.500 744.086 529 743.793 C 595.924 743.463, 593.665 743.714, 600.362 735.890 C 610.950 723.520, 605.829 702.101, 591.321 698.072 C 588.827 697.380, 567.011 697.009, 528.500 697.006 L 469.500 697.001 470 653.705 C 470.456 614.180, 470.657 610.169, 472.302 607.659 C 473.294 606.148, 475.235 604.481, 476.617 603.955 C 478.111 603.387, 503.031 603, 538.065 603 L 597 603 597 632.852 C 597 662.223, 597.037 662.759, 599.270 666.102 C 602.293 670.627, 607.457 673.232, 612.248 672.648 C 615.636 672.235, 620.093 668.152, 658.748 630.048 C 686.726 602.469, 701.973 586.727, 702.869 584.495 C 705.952 576.819, 706.204 577.145, 664.197 534.404 C 638.402 508.158, 623.982 494.219, 620.873 492.527 C 614.965 489.312, 608.541 488.500, 604.270 490.428" stroke="none" fill="#fbfbfb" fill-rule="evenodd"/><path d="M 301.500 134.042 C 247.216 136.078, 209.425 151.734, 177.120 185.570 C 156.804 206.848, 143.947 231.538, 138.102 260.500 C 133.367 283.954, 133.500 276.798, 133.500 509 C 133.500 716.251, 133.602 729.240, 135.331 741.762 C 140.985 782.718, 154.680 812.692, 179.816 839.127 C 202.365 862.842, 232.350 879.368, 264.751 885.940 C 287.849 890.624, 281.098 890.500, 512.500 890.500 C 743.764 890.500, 737.166 890.621, 760.147 885.961 C 808.168 876.222, 850.711 844.110, 871.972 801.552 C 877.821 789.845, 884.411 771.727, 885.557 764.204 C 885.867 762.167, 886.353 759.375, 886.636 758 C 886.919 756.625, 887.342 754.375, 887.576 753 C 887.810 751.625, 888.527 748.250, 889.170 745.500 C 890.831 738.391, 891.614 302.901, 889.998 285 C 887.694 259.471, 882.907 241.603, 872.988 221.500 C 865.115 205.543, 856.103 193.306, 842.567 180.193 C 816.698 155.133, 787.464 141.557, 746 135.346 C 735.432 133.764, 717.763 133.611, 528 133.458 C 414.425 133.367, 312.500 133.630, 301.500 134.042 M 416.286 246.443 C 406.293 249.584, 399.640 255.323, 395.355 264.500 C 393.100 269.328, 393.019 270.381, 393.010 295.085 L 393 320.670 489.750 321.334 C 542.962 321.700, 623.288 321.999, 668.250 321.999 L 750 322 750 438.500 L 750 555 754.599 555 C 757.128 555, 760.740 554.268, 762.625 553.374 C 767.565 551.029, 773.569 543.769, 774.883 538.549 C 775.677 535.395, 776 496.023, 776 402.235 C 776 254.964, 776.504 265.262, 768.872 256.592 C 766.432 253.820, 762.314 250.803, 758.219 248.787 L 751.543 245.500 586.021 245.309 C 451.020 245.154, 419.723 245.363, 416.286 246.443 M 428.241 272.995 C 415.371 280.841, 420.944 299.984, 436.102 299.996 C 441.666 300.001, 446.465 297.065, 449.148 292.016 C 455.906 279.299, 440.656 265.425, 428.241 272.995 M 478.966 271.820 C 473.055 274.440, 469.998 279.097, 470.007 285.473 C 470.018 294.426, 475.675 299.982, 484.789 299.993 C 489.545 299.999, 490.492 299.613, 494.193 296.161 C 497.858 292.742, 498.353 291.730, 498.710 286.911 C 499.181 280.559, 496.998 276.189, 491.759 272.995 C 488.541 271.032, 482.082 270.439, 478.966 271.820 M 273.748 327.486 C 267.166 329.297, 259.518 334.441, 255.411 339.820 C 248.592 348.750, 248.935 340.704, 249.232 485.069 L 249.500 615.500 251.811 621.221 C 254.739 628.470, 261.368 635.345, 268.780 638.819 L 274.500 641.500 311.663 641.500 L 348.827 641.500 353.069 638.500 C 359.818 633.728, 361.147 631.352, 360.344 625.496 C 359.863 621.981, 358.847 619.693, 356.907 617.753 L 354.154 615 317.150 615 L 280.145 615 278.073 612.365 C 276.006 609.738, 276 609.423, 276 506.365 L 276 403 425.500 403 L 575 403 575 435 L 575 467 588.530 467 L 602.060 467 601.780 406.750 C 601.503 347.156, 601.476 346.456, 599.338 342.500 C 594.622 333.777, 586.593 328.800, 574.392 327.036 C 570.048 326.408, 514.077 326.065, 423 326.109 C 307.277 326.165, 277.554 326.439, 273.748 327.486 M 285.467 353.998 C 277.967 357.711, 275.246 366.352, 279.193 373.926 C 283.080 381.383, 291.418 384.048, 298.980 380.248 C 309.638 374.894, 309.642 359.909, 298.987 354.275 C 293.700 351.479, 290.681 351.417, 285.467 353.998 M 336.500 352.733 C 333.279 353.539, 329.086 356.933, 327.485 360.029 C 326.668 361.609, 326 365.139, 326 367.874 C 326 382.315, 345.385 387.258, 353.005 374.759 C 359.674 363.821, 349.017 349.599, 336.500 352.733 M 604.270 490.428 C 602.493 491.231, 600.132 493.375, 599.023 495.193 C 597.128 498.302, 597.007 500.189, 597.004 526.698 L 597 554.896 529.750 555.198 L 462.500 555.500 456 557.828 C 442.944 562.504, 433.285 571.063, 427.597 583 L 424.500 589.500 424.236 621 L 423.973 652.500 391.451 684.500 L 358.930 716.500 358.965 721.498 L 359 726.495 401.750 769.105 C 441.184 808.411, 444.869 811.814, 449.259 812.990 C 453.382 814.095, 454.612 814.038, 458.462 812.568 C 464.332 810.326, 468.692 805.273, 469.487 799.792 C 469.829 797.431, 469.972 783.932, 469.805 769.793 L 469.500 744.086 529 743.793 C 595.924 743.463, 593.665 743.714, 600.362 735.890 C 610.950 723.520, 605.829 702.101, 591.321 698.072 C 588.827 697.380, 567.011 697.009, 528.500 697.006 L 469.500 697.001 470 653.705 C 470.456 614.180, 470.657 610.169, 472.302 607.659 C 473.294 606.148, 475.235 604.481, 476.617 603.955 C 478.111 603.387, 503.031 603, 538.065 603 L 597 603 597 632.852 C 597 662.223, 597.037 662.759, 599.270 666.102 C 602.293 670.627, 607.457 673.232, 612.248 672.648 C 615.636 672.235, 620.093 668.152, 658.748 630.048 C 686.726 602.469, 701.973 586.727, 702.869 584.495 C 705.952 576.819, 706.204 577.145, 664.197 534.404 C 638.402 508.158, 623.982 494.219, 620.873 492.527 C 614.965 489.312, 608.541 488.500, 604.270 490.428" stroke="none" fill="#1f88e7" fill-rule="evenodd"/></svg>